<svg width="20.000000" height="15.500000" viewBox="0 0 20 15.5" fill="none" xmlns="http://www.w3.org/2000/svg" xmlns:xlink="http://www.w3.org/1999/xlink">
	<desc>
			Created with Pixso.
	</desc>
	<defs/>
	<path id="矢量 271" d="M2.93 1.62L2.17 3.15C0.74 6.01 0 9.16 0 12.35C0 12.44 0.04 12.52 0.12 12.57L5 15.5L6.5 13.5L4.5 12.5L5 12L6.21 12.6C7.38 13.19 8.68 13.5 10 13.5C11.31 13.5 12.61 13.19 13.78 12.6L14 12.5L15 12L15.5 12.5L13.5 13.5L15 15.5L19.87 12.57C19.95 12.52 20 12.44 20 12.35C20 9.16 19.25 6.01 17.82 3.15L17.17 1.85C17.06 1.62 16.86 1.45 16.63 1.36L13 0L12.5 1L7.5 1L7 0L3.12 1.45C3.04 1.48 2.97 1.54 2.93 1.62ZM6.5 6.5C5.39 6.5 4.5 7.39 4.5 8.5C4.5 9.6 5.39 10.5 6.5 10.5C7.6 10.5 8.5 9.6 8.5 8.5C8.5 7.39 7.6 6.5 6.5 6.5ZM13.5 6.5C12.39 6.5 11.5 7.39 11.5 8.5C11.5 9.6 12.39 10.5 13.5 10.5C14.6 10.5 15.5 9.6 15.5 8.5C15.5 7.39 14.6 6.5 13.5 6.5Z" fill="#FFFFFF" fill-opacity="1.000000" fill-rule="evenodd"/>
</svg>
