<svg width="20.000000" height="20.000000" viewBox="0 0 20 20" fill="none" xmlns="http://www.w3.org/2000/svg" xmlns:xlink="http://www.w3.org/1999/xlink">
	<desc>
			Created with Pixso.
	</desc>
	<defs/>
	<path id="github" d="M10 0C15.52 0 20 4.58 20 10.25C19.99 12.4 19.34 14.49 18.11 16.24C16.89 17.98 15.17 19.29 13.18 19.98C12.68 20.08 12.5 19.76 12.5 19.49C12.5 19.14 12.51 18.04 12.51 16.67C12.51 15.71 12.2 15.09 11.83 14.77C14.06 14.52 16.39 13.64 16.39 9.71C16.39 8.58 16.01 7.67 15.37 6.95C15.47 6.7 15.82 5.65 15.27 4.24C15.27 4.24 14.43 3.96 12.52 5.29C11.72 5.06 10.87 4.94 10.02 4.94C9.17 4.94 8.32 5.06 7.52 5.29C5.61 3.97 4.77 4.24 4.77 4.24C4.22 5.65 4.57 6.7 4.67 6.95C4.03 7.67 3.64 8.59 3.64 9.71C3.64 13.63 5.97 14.52 8.2 14.77C7.91 15.03 7.64 15.48 7.56 16.14C6.98 16.41 5.54 16.85 4.64 15.3C4.46 14.99 3.89 14.23 3.11 14.25C2.27 14.26 2.77 14.73 3.12 14.93C3.54 15.17 4.03 16.08 4.14 16.37C4.35 16.95 5 18.05 7.51 17.58C7.51 18.44 7.52 19.25 7.52 19.49C7.52 19.76 7.33 20.07 6.83 19.98C4.84 19.3 3.11 17.99 1.88 16.24C0.65 14.5 -0.01 12.4 0 10.25C0 4.58 4.47 0 10 0Z" fill="#FFFFFF" fillOpacity="1.000000" fill-rule="nonzero"/>
</svg>
