<svg width="20.000000" height="20.000000" viewBox="0 0 20 20" fill="none" xmlns="http://www.w3.org/2000/svg" xmlns:xlink="http://www.w3.org/1999/xlink">
	<desc>
			Created with Pixso.
	</desc>
	<defs/>
	<path id="矢量 267" d="M1.86 0L18.13 0C19.16 0 20 0.82 20 1.83L20 12.83C20 13.84 19.16 14.66 18.13 14.66L17.86 14.66L17.86 19.47C17.86 19.96 17.23 20.18 16.91 19.8L12.66 14.66L1.86 14.66C0.83 14.66 0 13.84 0 12.83L0 1.83C0 0.82 0.83 0 1.86 0ZM2.85 3.18Q2.59 3.33 2.53 3.54Q2.52 3.6 2.52 3.66C2.52 3.68 2.52 3.72 2.54 3.79L5.01 11.69Q5.06 11.82 5.13 11.91Q5.4 12.25 6.09 12.25C6.34 12.25 6.57 12.2 6.78 12.1C6.98 12.01 7.11 11.87 7.16 11.69L9.62 3.79C9.64 3.72 9.64 3.68 9.64 3.66Q9.64 3.62 9.63 3.57Q9.59 3.35 9.3 3.19Q9 3.01 8.69 2.99L8.69 2.99Q8.64 2.98 8.59 2.98Q8.26 2.98 8.11 3.15Q8.06 3.22 8.03 3.31L6.09 10.12L4.13 3.31Q4.1 3.22 4.05 3.15Q3.9 2.98 3.57 2.98Q3.46 2.98 3.35 3Q3.09 3.04 2.85 3.18ZM10.53 3.49L10.53 11.66C10.53 11.82 10.61 11.94 10.78 12.03C10.95 12.13 11.14 12.17 11.36 12.17C11.59 12.17 11.79 12.13 11.95 12.03C12.11 11.94 12.19 11.82 12.19 11.66L12.19 8.38L13.27 8.38L15.09 11.85C15.22 12.1 15.41 12.23 15.66 12.23C15.91 12.23 16.14 12.14 16.36 11.96C16.59 11.78 16.7 11.59 16.7 11.38C16.7 11.3 16.68 11.23 16.64 11.18L14.96 8.12C15.47 7.97 15.88 7.69 16.18 7.27Q16.64 6.64 16.64 5.61Q16.64 4.49 16.08 3.84Q15.34 2.98 13.6 2.98L11.07 2.98C10.91 2.98 10.78 3.03 10.68 3.13Q10.59 3.22 10.55 3.33Q10.53 3.41 10.53 3.49ZM12.19 7.09L13.6 7.09Q14.3 7.09 14.65 6.74Q14.97 6.41 14.97 5.76Q14.97 5.1 14.64 4.77Q14.3 4.42 13.6 4.42L12.19 4.42L12.19 7.09Z" fill="#FFFFFF" fill-opacity="1.000000" fill-rule="evenodd"/>
</svg>
