<svg width="20.000000" height="19.668579" viewBox="0 0 20 19.6686" fill="none" xmlns="http://www.w3.org/2000/svg" xmlns:xlink="http://www.w3.org/1999/xlink">
	<desc>
			Created with Pixso.
	</desc>
	<defs/>
	<path id="矢量 270" d="M14.21 0L14.85 0.76L12.58 2.66L17 2.66C18.65 2.66 20 4.01 20 5.66L20 15.66C20 17.32 18.65 18.66 17 18.66L16 18.66C16 19.22 15.55 19.66 15 19.66C14.44 19.66 14 19.22 14 18.66L6 18.66C6 19.22 5.55 19.66 5 19.66C4.44 19.66 4 19.22 4 18.66L3 18.66C1.34 18.66 0 17.32 0 15.66L0 5.66C0 4.01 1.34 2.66 3 2.66L7.41 2.66L5.14 0.76L5.78 0L8.96 2.66L11.03 2.66L14.21 0ZM17 4.66L3 4.66C2.44 4.66 2 5.11 2 5.66L2 15.66C2 16.22 2.44 16.66 3 16.66L17 16.66C17.55 16.66 18 16.22 18 15.66L18 5.66C18 5.11 17.55 4.66 17 4.66ZM7.83 8.33L8.1 9.8L4.16 10.5L3.9 9.02L7.83 8.33ZM12.16 8.33L16.1 9.02L15.83 10.5L11.9 9.8L12.16 8.33ZM9.5 13.66C9.22 13.94 8.77 13.94 8.5 13.66L8.1 13.27C8.03 13.2 8 13.11 8 13.02C8 12.7 8.38 12.54 8.6 12.77L8.7 12.87C8.86 13.03 9.13 13.03 9.29 12.87C9.68 12.48 10.31 12.48 10.7 12.87C10.86 13.03 11.13 13.03 11.29 12.87L11.39 12.77C11.61 12.54 12 12.7 12 13.02C12 13.11 11.96 13.2 11.89 13.27L11.5 13.66C11.22 13.94 10.77 13.94 10.5 13.66C10.22 13.39 9.77 13.39 9.5 13.66Z" fill="#FFFFFF" fill-opacity="1.000000" fill-rule="evenodd"/>
</svg>
