<svg width="16.000000" height="18.000000" viewBox="0 0 16 18" fill="none" xmlns="http://www.w3.org/2000/svg" xmlns:xlink="http://www.w3.org/1999/xlink">
	<desc>
			Created with Pixso.
	</desc>
	<defs/>
	<path id="矩形 33" d="M3.93 1.93L4.21 1.59C4.83 0.85 5.7 0.36 6.65 0.21L7.37 0.1C7.78 0.03 8.21 0.03 8.62 0.1L9.34 0.21C10.29 0.36 11.16 0.85 11.78 1.59L12.06 1.93C12.48 2.43 12.77 3.03 12.91 3.67L13.64 7.19L15.92 13.72C15.96 13.86 15.93 14.01 15.82 14.11C15.66 14.26 15.41 14.24 15.27 14.07L14.11 12.6L13.85 13.59C13.71 14.12 13.47 14.62 13.13 15.05L12.23 16.2L12.81 16.56C13.23 16.83 13.29 17.43 12.93 17.78C12.78 17.92 12.59 18 12.39 18L11.13 18C10.92 18 10.72 17.98 10.51 17.95L8 17.54L5.48 17.95C5.27 17.98 5.07 18 4.86 18L3.6 18C3.4 18 3.21 17.92 3.06 17.78C2.7 17.43 2.76 16.83 3.18 16.56L3.76 16.2L2.86 15.05C2.52 14.62 2.28 14.12 2.14 13.59L1.88 12.6L0.72 14.07C0.58 14.24 0.33 14.26 0.17 14.11C0.06 14.01 0.03 13.86 0.07 13.72L2.35 7.19L3.08 3.67C3.22 3.03 3.51 2.43 3.93 1.93Z" fill="#FFFFFF" fill-opacity="1.000000" fill-rule="evenodd"/>
</svg>
